<svg xmlns="http://www.w3.org/2000/svg" version="1.1" xmlns:xlink="http://www.w3.org/1999/xlink" width="512" height="512" x="0" y="0" viewBox="0 0 36.793 36.793" style="enable-background:new 0 0 512 512" xml:space="preserve" class=""><g transform="matrix(6.123233995736766e-17,1,-1,6.123233995736766e-17,36.79298114776611,0.00001811981201171875)"><path d="M23.682 1.127c0-.619.492-1.127 1.111-1.127s1.127.508 1.127 1.127v34.539c0 .619-.508 1.127-1.127 1.127s-1.111-.508-1.111-1.127V1.127zm-12.809 0c0-.619.492-1.127 1.111-1.127s1.127.508 1.127 1.127v34.539c0 .619-.508 1.127-1.127 1.127a1.118 1.118 0 0 1-1.111-1.127V1.127z" style="" fill="#6e6059" data-original="#1e201d" opacity="1"></path></g></svg>